<?xml version="1.0" standalone="no"?>
<!DOCTYPE svg PUBLIC "-//W3C//DTD SVG 20010904//EN"
 "http://www.w3.org/TR/2001/REC-SVG-20010904/DTD/svg10.dtd">
<svg version="1.0" xmlns="http://www.w3.org/2000/svg"
 width="180.000000pt" height="36.000000pt" viewBox="0 0 180.000000 36.000000"
 preserveAspectRatio="xMidYMid meet">

<g transform="translate(0.000000,36.000000) scale(0.100000,-0.100000)"
fill="#000000" stroke="none">
<path d="M0 180 l0 -180 160 0 160 0 0 118 c0 106 2 118 20 130 11 7 20 18 20
26 0 7 -9 21 -20 31 -11 10 -20 26 -20 37 0 17 -11 18 -160 18 l-160 0 0 -180z"/>
<path d="M476 301 c-6 -10 -103 -253 -110 -278 -6 -18 -3 -22 16 -20 13 0 26
6 30 12 5 7 8 7 8 -1 0 -17 41 -10 52 9 6 12 23 17 58 17 40 0 50 -4 55 -20 6
-20 25 -28 25 -10 0 5 9 6 23 2 19 -7 35 -7 58 -3 4 0 -19 67 -51 148 l-58
148 -51 1 c-29 1 -53 -2 -55 -5z m74 -183 c0 -4 -9 -8 -21 -8 -15 0 -19 4 -15
16 3 9 6 21 6 27 1 13 30 -22 30 -35z"/>
<path d="M634 293 c57 -155 113 -293 119 -293 4 0 7 63 7 139 0 77 3 146 6
155 5 14 -4 16 -66 16 -64 0 -71 -2 -66 -17z"/>
<path d="M795 298 c-3 -8 -4 -76 -3 -153 l3 -139 48 -1 47 -2 0 37 0 38 65 4
c82 5 115 32 122 101 5 41 2 48 -30 83 l-35 39 -106 3 c-84 3 -107 1 -111 -10z
m185 -103 c0 -11 -12 -15 -45 -15 -33 0 -45 4 -45 15 0 11 12 15 45 15 33 0
45 -4 45 -15z"/>
<path d="M1089 275 c36 -42 45 -72 38 -127 -10 -75 -72 -128 -149 -128 -21 0
-38 -4 -38 -10 0 -6 43 -10 110 -10 l110 0 0 139 c0 77 3 146 6 155 5 13 -3
16 -51 16 l-57 0 31 -35z"/>
<path d="M1194 295 c-3 -6 -3 -73 -2 -150 l3 -139 48 -1 47 -2 0 48 0 49 60 0
60 0 0 40 0 40 -60 0 c-57 0 -60 1 -60 25 0 24 2 25 64 25 l64 0 -1 38 -2 37
-109 0 c-69 1 -110 -3 -112 -10z"/>
<path d="M1463 263 c-1 -151 -4 -187 -14 -199 -7 -8 -31 -14 -60 -14 -46 0
-49 -2 -49 -25 l0 -25 115 0 115 0 0 40 c0 27 -13 67 -40 120 -24 48 -40 94
-40 115 0 23 -5 35 -14 35 -9 0 -13 -14 -13 -47z"/>
<path d="M1510 304 c0 -1 19 -42 42 -91 28 -59 43 -107 47 -148 l6 -59 48 -1
47 0 0 51 c0 39 10 70 45 143 25 51 45 96 45 100 0 5 -21 8 -47 7 -46 -1 -49
-3 -69 -46 l-22 -45 -22 46 c-22 44 -23 45 -71 45 -27 1 -49 0 -49 -2z"/>
<path d="M1753 40 c0 -25 2 -35 4 -22 2 12 2 32 0 45 -2 12 -4 2 -4 -23z"/>
</g>
</svg>
